<svg xmlns="http://www.w3.org/2000/svg" viewBox="0 0 404.06 395.32"><defs><style>.cls-1{fill:#ddcaca;opacity:0.33;}.cls-2{fill:#b3adec;}.cls-3{fill:#78ba9a;}.cls-4{fill:#ffa938;}.cls-5{fill:#e1806d;}.cls-29,.cls-6{fill:#6756ad;}.cls-7{fill:#efebeb;}.cls-17,.cls-8,.cls-9{fill:#37366a;}.cls-9{font-size:6.03px;}.cls-15,.cls-17,.cls-9{font-family:Montserrat-Regular, Montserrat;}.cls-10{letter-spacing:-0.01em;}.cls-11{letter-spacing:0em;}.cls-12{letter-spacing:-0.01em;}.cls-13{letter-spacing:-0.01em;}.cls-14{fill:#a43f60;}.cls-15{font-size:4.49px;fill:#f3f4e9;}.cls-16{opacity:0.57;}.cls-17{font-size:4.1px;}.cls-18{letter-spacing:-0.01em;}.cls-19,.cls-28{fill:none;stroke-miterlimit:10;stroke-width:0.5px;}.cls-19{stroke:#37366a;}.cls-20{opacity:0.52;}.cls-21{letter-spacing:-0.02em;}.cls-22{letter-spacing:-0.01em;}.cls-23{letter-spacing:-0.06em;}.cls-24{letter-spacing:-0.01em;}.cls-25{letter-spacing:-0.01em;}.cls-26{letter-spacing:-0.01em;}.cls-27{letter-spacing:0em;}.cls-28{stroke:#50c3e2;}.cls-29{opacity:0.25;}.cls-30{fill:#f5ba9a;}.cls-31{fill:#594656;}.cls-32{fill:#b96944;}.cls-33{fill:#53648c;}.cls-34{fill:#5d95ba;}.cls-35{fill:#8fcaec;}.cls-36{fill:#f49e78;}.cls-37{fill:#514540;}.cls-38{opacity:0.28;}.cls-39{fill:#f28279;}</style></defs><title>login</title><g id="Layer_2" data-name="Layer 2"><g id="Objects"><path class="cls-1" d="M5.48,123,117,122.68l-28.44-5.8S89.69,85,75.76,91.34a24.84,24.84,0,0,0-14.51,20.31S56,98.89,48.48,103.53s-11,12.77-11,12.77-2.71-9.19-7.55-9.71c-4.13-.45-12,8.29-16.13,13.21Z"/><path class="cls-1" d="M312.09,174.81l92-.26-23.46-4.31s.95-23.71-10.54-19-12,15.09-12,15.09-4.31-9.48-10.54-6a23.76,23.76,0,0,0-9.09,9.49s-2.24-6.82-6.23-7.21c-3.41-.33-9.9,6.16-13.3,9.81Z"/><path class="cls-1" d="M162.48,43l92-.28L231,38s1-26.33-10.53-21.07a20.5,20.5,0,0,0-12,16.76s-4.31-10.53-10.53-6.7a25.74,25.74,0,0,0-9.1,10.53s-2.23-7.58-6.22-8c-3.41-.37-9.9,6.84-13.3,10.9Z"/><path class="cls-2" d="M324.26,27.1l-7,2.43-3-8.74A30.93,30.93,0,1,0,255.8,41.08l3,8.73-7,2.44a10.56,10.56,0,0,0-6.49,13.39l19.74,56.86a10.59,10.59,0,0,0,13.42,6.58l72.44-25.14a10.62,10.62,0,0,0,6.55-13.52L337.75,33.56A10.61,10.61,0,0,0,324.26,27.1ZM269,36.49a16.95,16.95,0,1,1,32-11.11l3,8.74L272,45.23Zm42,51.82,5,14.52a1.16,1.16,0,0,1-.78,1.46l-6.95,2.42a1.16,1.16,0,0,1-1.43-.7l-5-14.52A13.51,13.51,0,1,1,311,88.31Z"/><path class="cls-3" d="M276.35,308c-1.73-3.36,2.3-7,6-7.61s7.91-.16,10.86-2.5c3.95-3.12,3.75-9.94,8.12-12.43,3.51-2,8.16-.1,11.87-1.68,4.62-2,5.92-8.4,10.45-10.56,3.61-1.72,8.34.22,10.18,3.78s1,8.14-1.56,11.22c-2,2.4-5,4.09-6.2,7-1.95,4.5,1.12,9.95-.67,14.51-3.3,8.43-18.92,5.89-21.63,14.52-.6,1.93-.35,4-.51,6-.47,6-4.68,11.19-9.88,14.17s-11.29,4-17.27,4.42c-2.44.18-5,.23-7.19-.89a11.8,11.8,0,0,1-4.59-5c-7.18-13-10.14-30,12-34.88"/><path class="cls-4" d="M161.18,301.05c3.86-2.55,1.72-8.82-1.85-11.76s-8.38-4.93-10.13-9.22c-2.34-5.72,2-12.88-1.19-18.19-2.55-4.25-8.67-5-11.69-8.94-3.76-4.88-1.27-12.55-4.82-17.59-2.82-4-9-4.77-13.16-2.09s-6,8.11-5.08,12.94c.68,3.78,2.83,7.37,2.43,11.19-.63,6-7.19,10-8,15.92-1.54,11,16.69,17.69,14.39,28.56-.51,2.42-2,4.49-3.07,6.73-3.1,6.67-1.74,14.79,2,21.11s9.66,11.08,15.81,15.13c2.51,1.66,5.23,3.26,8.23,3.37,2.83.11,5.54-1.13,7.94-2.62,15.53-9.61,28.92-26,8.18-44.54"/><path class="cls-5" d="M262.48,314.85c5.4-2.33,10.26-6.64,14.29-10.8,10.87-11.22,17.62-25.88,21.16-41,3.21-13.65,3.92-27.77,3.25-41.74-.05-1.18-1.9-1.19-1.84,0,1.5,31.39-4.73,69.91-32.82,89a30.08,30.08,0,0,1-5,2.89c-1.09.47-.15,2.06.93,1.6Z"/><path class="cls-5" d="M298.18,257.8S300,247.63,313.44,246C313.44,246,308.52,258.06,298.18,257.8Z"/><path class="cls-5" d="M293.77,272.83s4.1-9.47,17.58-7.89C311.35,264.94,303.76,275.49,293.77,272.83Z"/><path class="cls-5" d="M288,286.08s6.13-8.31,18.91-3.75C307,282.33,297.19,290.91,288,286.08Z"/><path class="cls-5" d="M300.25,242s1.75-10,15-11.58C315.25,230.43,310.42,242.26,300.25,242Z"/><path class="cls-5" d="M300.43,224.64s-7.54-6.8-1.84-18.86C298.59,205.78,306,216.16,300.43,224.64Z"/><path class="cls-5" d="M300.48,234.94s-10-1.84-11.44-15.1C289,219.84,300.83,224.78,300.48,234.94Z"/><path class="cls-5" d="M299.48,250.17s-10-1.84-11.44-15.1C288,235.07,299.83,240,299.48,250.17Z"/><path class="cls-5" d="M296.89,264.44s-9.82-2.54-10.35-15.87C286.54,248.57,298,254.33,296.89,264.44Z"/><path class="cls-5" d="M292.36,278.69s-9.82-2.54-10.35-15.87C282,262.82,293.42,268.58,292.36,278.69Z"/><rect class="cls-6" x="141.92" y="69.4" width="143.42" height="281.22" rx="21.15"/><rect class="cls-7" x="148.54" y="77.67" width="130.18" height="263.01" rx="14.81"/><path class="cls-6" d="M252.58,77.67h-8.46a4.71,4.71,0,0,0-4.71,4.71v3.36a4.69,4.69,0,0,1-4.7,4.7H197a4.7,4.7,0,0,1-4.71-4.7V82.38a4.7,4.7,0,0,0-4.7-4.71h-24V75.26h89.07Z"/><path class="cls-8" d="M217.25,118.21a1.75,1.75,0,1,0-1.64,0,2.75,2.75,0,0,0-1.92,2.61v1.37h5.47v-1.37A2.75,2.75,0,0,0,217.25,118.21Z"/><text class="cls-9" transform="translate(193.1 131.88)">Cre<tspan class="cls-10" x="10.55" y="0">a</tspan><tspan class="cls-11" x="14.05" y="0">te Ac</tspan><tspan class="cls-12" x="29.89" y="0">c</tspan><tspan class="cls-11" x="33.3" y="0">ou</tspan><tspan class="cls-13" x="41.12" y="0">n</tspan><tspan class="cls-11" x="44.97" y="0">t</tspan></text><rect class="cls-14" x="185.87" y="289.95" width="54.17" height="12.16" rx="0.98"/><text class="cls-15" transform="translate(203.61 297.35)">Register</text><g class="cls-16"><text class="cls-17" transform="translate(166.89 148.23)">Email Address</text></g><text class="cls-17" transform="translate(171.5 161.61)"><tspan class="cls-18">y</tspan><tspan x="2.32" y="0">ouremail@gmail.c</tspan></text><rect class="cls-19" x="166.89" y="152.68" width="99.08" height="14.93" rx="2.76"/><g class="cls-20"><text class="cls-17" transform="translate(166.89 181.46)"><tspan class="cls-21">C</tspan><tspan x="2.96" y="0">ou</tspan><tspan class="cls-22" x="8.28" y="0">n</tspan><tspan x="10.9" y="0">try</tspan></text></g><text class="cls-17" transform="translate(171.5 194.72)"><tspan class="cls-23">Y</tspan><tspan x="2.31" y="0">our t</tspan><tspan class="cls-24" x="12.1" y="0">e</tspan><tspan x="14.59" y="0">xt</tspan></text><rect class="cls-19" x="166.89" y="186.05" width="99.08" height="14.93" rx="2.76"/><g class="cls-20"><text class="cls-17" transform="translate(166.89 216.55)">City</text></g><text class="cls-17" transform="translate(171.5 229.8)"><tspan class="cls-23">Y</tspan><tspan x="2.31" y="0">our City</tspan></text><rect class="cls-19" x="166.89" y="221.13" width="99.08" height="14.93" rx="2.76"/><g class="cls-20"><text class="cls-17" transform="translate(166.89 251.81)"><tspan class="cls-25">P</tspan><tspan x="2.76" y="0">ass</tspan><tspan class="cls-26" x="9.32" y="0">w</tspan><tspan class="cls-27" x="13.03" y="0">ord</tspan></text></g><text class="cls-17" transform="translate(171.5 265.06)">E<tspan class="cls-22" x="2.68" y="0">n</tspan><tspan x="5.3" y="0">try pass</tspan><tspan class="cls-26" x="21.44" y="0">w</tspan><tspan x="25.15" y="0">ord</tspan></text><rect class="cls-19" x="166.89" y="256.39" width="99.08" height="14.93" rx="2.76"/><line class="cls-28" x1="212.09" y1="156.71" x2="212.09" y2="161.98"/><path class="cls-29" d="M263.26,393.21c0-1.17-28.53-2.11-63.73-2.11s-63.74.94-63.74,2.11,28.53,2.11,63.74,2.11S263.26,394.37,263.26,393.21Z"/><path class="cls-30" d="M206.26,258.35s6.33,9.78,7.76,5.54l2.32-6.83s-1.8-2.95-2.76-2-2.28-.78-2.28-.78Z"/><path class="cls-30" d="M237.56,207.77l2.62-15.2c1.72-.55,3.48-1.88,2.88-3.93a3,3,0,0,0-2.05-1.93c-.36-.14-2.19-.66-2.32,0,0,0,1-5.47,1-5.47l-17.82-8.6-1.65,11c0-.17-1.73-.56-2-.54a3,3,0,0,0-2.12,1.72,3.53,3.53,0,0,0,3.11,4.71s.31,4.9,1.44,6.63,6.38,2.94,6.38,2.94l-.58,6.62Z"/><path class="cls-4" d="M243.58,209c-8.05-2.26-19.36-4.25-19.36-4.25l-7.51,53.45,31.62-1Z"/><path class="cls-4" d="M243.58,209a208.69,208.69,0,0,0,31.71,6c-2.41-11-3.72-19.33-6.87-28.63l11.87-3s10,34.68,6.94,39.31c-5.15,7.87-30.76,2.69-30.76,2.69l-12.12-2.16Z"/><path class="cls-4" d="M189.44,220.78s33.93-16.6,35.49-16,2.89,8.31,2.89,8.31a299,299,0,0,1-31.33,16.66l17.31,23.56-8.62,6.18s-23.76-26.7-22.86-32.22C183,223,189.44,220.78,189.44,220.78Z"/><path class="cls-30" d="M279.78,183.45s-1.4-9.82-1.57-10.1-.17-2-2.69-1.6c0,0-.17-3.11-1.62-3.16a13.22,13.22,0,0,0-3.09.33s-1.64-8-2.7-9.35-2.79,2.46-.27,12.18c0,0,1.4,6.62,1,6.86-1.13.66-2.68.54-4.83-3.13-2.28-3.9-5.12-2.58-3.72.45s3.39,6.93,4.68,8,4,.9,4,.9l.4,1.27Z"/><path class="cls-31" d="M248.33,257.23c-3.81,57.83-16.74,129.2-16.74,129.2l12.66,5.36h-27L235,265.58h-6.05L184.18,391.87H157.25l15.32-5.58L217.29,254.1Z"/><path class="cls-32" d="M241.84,187.11c1.51-3,3.27-10.32-1.3-12.36a46.09,46.09,0,0,1-6.66-3.79,11.57,11.57,0,0,0-9.49-1.71,8.71,8.71,0,0,0-1.5.56c-3.19,1.57-5.35,10.06-5.35,10.06l3.14.78s3.5,15.57,9.26,18.77l5.75,1.22,3.4.76Z"/><path class="cls-32" d="M237.67,173.67a21.7,21.7,0,0,0-.11-2.79c0-.37-.63-.38-.59,0a21.69,21.69,0,0,1,.1,2.79.3.3,0,0,0,.6,0Z"/><path class="cls-32" d="M237.67,173.79a2.65,2.65,0,0,0,.74-1.1,12.15,12.15,0,0,1,.94-1.43c.23-.3-.28-.6-.51-.3a10.5,10.5,0,0,0-.76,1.12c-.2.33-.38,1-.71,1.2s0,.72.3.51Z"/><path class="cls-29" d="M127.48,377.87c0-1.17-28.54-2.11-63.74-2.11S0,376.7,0,377.87,28.54,380,63.74,380,127.48,379,127.48,377.87Z"/><path class="cls-31" d="M85.67,156.59a28.06,28.06,0,0,0-3.85-.46c-2.28-.21-4.36,1.26-6.08,2.77a19.88,19.88,0,0,0-4.09,5.48c-1.14,2-2.21,4.41-1.54,6.65a5.61,5.61,0,0,1,.45,1.72c0,1.86-2.58,2.56-3.38,4.23-1,2.07,1,4.85-.34,6.69-.68.92-2,1.21-2.64,2.15a4.28,4.28,0,0,0-.44,2.61.66.66,0,0,0,.16.51.79.79,0,0,0,.43.14c7.3.7,14.52-.88,21.83-.18a12.29,12.29,0,0,0,2.64.07,12.58,12.58,0,0,0,3.61-1.2c6.31-2.88,12.62-3.63,18.79-6.8a1.36,1.36,0,0,0,.66-.54,1.13,1.13,0,0,0,.07-.66,4.29,4.29,0,0,0-2.92-3.58c-1.61-.51-3.53-.07-4.87-1.08a4.56,4.56,0,0,1-1.45-3.24c-.26-2.45,0-5.29-1.76-7-1.39-1.34-3.62-1.49-5-2.82a17.88,17.88,0,0,1-1.86-2.72c-1.89-2.61-5.09-4.13-8.4-2.74"/><path class="cls-33" d="M73.47,241,32.77,369.73l-16,6.18H40.52L86.47,254.58a2,2,0,0,1,1.87-1.3h0a2,2,0,0,1,2,2.22L78.23,375.91h24.06l-16.06-5.32s15-70,18.29-91.92S103,241.29,103,241.29,87.43,236.34,73.47,241Z"/><path class="cls-5" d="M73.94,194.6c3.73-3.9,18.56-4.35,23.92-2.15s15.22,30.68,15.22,30.68l-9.8,3.85-6.09-23.8-19.08-2.63Z"/><path class="cls-5" d="M99,206.67a31.35,31.35,0,0,0,2-7c.36-3-3.78-6-3.78-6l-22.44,5.82,1.39,13.37-3.29,27,28.52,1.06-2.87-34.15"/><path class="cls-34" d="M76.52,207.44a.44.44,0,0,1-.27-.09.45.45,0,0,1-.1-.64l1.6-2.12a.45.45,0,0,1,.64-.09.46.46,0,0,1,.09.64l-1.6,2.12A.44.44,0,0,1,76.52,207.44Z"/><path class="cls-35" d="M62.27,244.47l5.15-3"/><path class="cls-30" d="M84.49,191.38c-.31-3,1.21-6-3.6-7.93-6.63-2.65-8-25.52,3.93-25.57s11.38,15,11.34,19.52-4,5.62-5,7.24-.14,6.74-.14,6.74Z"/><path class="cls-30" d="M77.69,174.07a2.32,2.32,0,1,1-2.3-2.66A2.5,2.5,0,0,1,77.69,174.07Z"/><ellipse class="cls-30" cx="96.88" cy="172.01" rx="2.3" ry="2.66"/><path class="cls-2" d="M146.46,220.42l-3.55-9L42.51,250.83a21.28,21.28,0,1,0,4.16,12.64,20.08,20.08,0,0,0-.16-2.58l76.46-31,4.2,9.24,9.33-4.27-3.29-7.35,3-1.6,3.55,7.07,6.67-3.57-3.69-7.53ZM25.4,277.33a13.86,13.86,0,1,1,13.86-13.86A13.86,13.86,0,0,1,25.4,277.33Z"/><path class="cls-5" d="M73.94,194.6s-25.31,22.54-25.45,26.72S63.4,247.51,63.4,247.51l7.53-4.76L60.39,223l17.15-16.35s.56,3.8,1.93,4.83l.76-15Z"/><path class="cls-31" d="M93.75,163.14c-3.29.17-17.87,1.65-17.87,1.65s2.13-8.75,8.94-9.1C93.75,155.24,93.75,163.14,93.75,163.14Z"/><path class="cls-31" d="M75.9,172.39s11.81-1.11,13.88-6.69c0,0,3.93,5,6.23,4.77,0,0,.37-6.61-1.06-7.5s-19.56.95-19.56.95A29,29,0,0,0,75.9,172.39Z"/><path class="cls-30" d="M63.72,247.24s3.23,6.81,3.41,7,.58,1.43,2.31.56c0,0,.83,2.21,1.9,1.93a10.12,10.12,0,0,0,2.16-.94s1.29,1.73,2.25.81c1.13-1.06.06-2.25-.74-3.53,0,0-2.5-4.49-2.25-4.76.67-.73,1.82-1,4.2,1.19,2.54,2.31,4.3.72,2.6-1.16s-4-4.28-5.19-4.76a5.36,5.36,0,0,0-3.11.25l-.58-.83Z"/><path class="cls-5" d="M115.47,233s-1.81,5.15-5,6-20.93,4.47-20.93,4.47v-7Z"/><path class="cls-30" d="M89.57,237.28H88.22a9.56,9.56,0,0,0-.49-1.27c-.56-.9-8-1.84-7.86-.87s1.36,1.21,4,1.7c0,0-9.8,2.38-8.88,3.15s7-1,7-1-6.63,2.15-6.16,3.62c.27.85,7-1.14,7-1.14s-6.85,2.45-5.63,3.28,8.78-1,9.51-1.29,1-1.67,1-1.67l1.84-.32Z"/><path class="cls-31" d="M84,153a10.89,10.89,0,0,0,1,3.38c.26.39.9,0,.64-.37a10.24,10.24,0,0,1-.92-3.21c-.11-.45-.82-.26-.71.2Z"/><path class="cls-31" d="M85.59,156.47q.55-1,1.2-1.95c.26-.39-.37-.76-.64-.37q-.63.94-1.2,1.95a.37.37,0,0,0,.64.37Z"/><path class="cls-36" d="M87,171.88a17.7,17.7,0,0,0,.1,2.52c.05.43,0,1.19.3,1.52s.53.17.75.21c.8.12,1.61.21,2.41.32l-.12-.31a7.4,7.4,0,0,1-2.3,1.49c-.21.1,0,.41.19.32a7.61,7.61,0,0,0,2.36-1.55.19.19,0,0,0-.13-.32c-.84-.11-2.55,0-3-.9a8.31,8.31,0,0,1-.21-3.3c0-.24-.36-.24-.37,0Z"/><path class="cls-37" d="M90.77,174.4c.1-.84-.43-2.79.62-3.2s1.53.42,1.68,1.21l.27,1.49c0,.23.39.13.35-.1-.22-1.21-.27-3.29-2.08-3s-1.08,2.56-1.21,3.64c0,.23.34.23.37,0Z"/><path class="cls-37" d="M81.31,174.9c.1-.84-.43-2.79.63-3.2s1.52.42,1.67,1.21l.27,1.49c0,.23.4.13.35-.1-.22-1.21-.27-3.29-2.08-3s-1.07,2.56-1.21,3.64c0,.23.34.23.37,0Z"/><path class="cls-36" d="M83.81,177c.39,3,5.55,3.66,7.45,1.81.17-.16-.09-.42-.26-.26-1.58,1.55-6.47,1.19-6.83-1.55,0-.23-.39-.23-.36,0Z"/><path class="cls-36" d="M83.73,177.54a.7.7,0,0,1,.77-.48c.24,0,.33-.31.1-.35a1.07,1.07,0,0,0-1.22.73c-.07.22.28.32.35.1Z"/><g class="cls-38"><path class="cls-39" d="M83.27,175.81c.17.41-.55,1.08-1.66,1.31a3,3,0,0,1-1.4,0,1,1,0,0,1-.63-.4.37.37,0,0,1,0-.35A1.13,1.13,0,0,1,80,176a4.35,4.35,0,0,1,1.26-.46C82.24,175.35,83.11,175.39,83.27,175.81Z"/></g><g class="cls-38"><path class="cls-39" d="M95.3,175c.16.41-.56,1.08-1.66,1.31a3,3,0,0,1-1.41,0,1,1,0,0,1-.63-.4.37.37,0,0,1,0-.35,1.13,1.13,0,0,1,.41-.36,4.34,4.34,0,0,1,1.26-.45C94.26,174.51,95.13,174.56,95.3,175Z"/></g><path class="cls-36" d="M75.24,172.69a1.17,1.17,0,0,0-1,1.37,1.33,1.33,0,0,0,1.24,1.25c.23,0,.23-.35,0-.36-1-.07-1.28-1.86-.2-1.89.24,0,.24-.38,0-.37Z"/><path class="cls-36" d="M74.26,173.69a1.67,1.67,0,0,0,1.44.63c.23,0,.23-.38,0-.36a1.35,1.35,0,0,1-1.18-.53c-.15-.18-.4.08-.26.26Z"/><path class="cls-36" d="M96.7,173.32c.79.19,1.23-.53,1.33-1.22a1.33,1.33,0,0,0-1.16-1.57c-.24,0-.24.35,0,.37a1,1,0,0,1,.81,1c0,.47-.27,1.17-.89,1-.22-.06-.32.3-.09.35Z"/><path class="cls-36" d="M96.92,172.24a1.91,1.91,0,0,0,.63-1.18c0-.23-.32-.33-.35-.09a1.65,1.65,0,0,1-.54,1c-.18.16.08.42.26.26Z"/></g></g></svg>